<?xml version="1.0" encoding="UTF-8" standalone="no"?>
<!DOCTYPE svg PUBLIC "-//W3C//DTD SVG 1.1//EN"
 "http://www.w3.org/Graphics/SVG/1.1/DTD/svg11.dtd">
<!-- Generated by graphviz version 13.0.1 (20250615.1724)
 -->
<!-- Title: BLHeli_S_DShot_Flow Pages: 1 -->
<svg width="1576pt" height="637pt"
 viewBox="0.00 0.00 1576.00 637.00" xmlns="http://www.w3.org/2000/svg" xmlns:xlink="http://www.w3.org/1999/xlink">
<g id="graph0" class="graph" transform="scale(1 1) rotate(0) translate(4 632.5)">
<title>BLHeli_S_DShot_Flow</title>
<polygon fill="white" stroke="none" points="-4,4 -4,-632.5 1572,-632.5 1572,4 -4,4"/>
<g id="clust1" class="cluster">
<title>cluster_dshot_cmd</title>
<polygon fill="lightgrey" stroke="lightgrey" points="781,-463.75 781,-620.5 1027,-620.5 1027,-463.75 781,-463.75"/>
<text xml:space="preserve" text-anchor="middle" x="904" y="-603.2" font-family="Times,serif" font-size="14.00">DShot命令处理子流程</text>
</g>
<g id="clust2" class="cluster">
<title>cluster_dshot_beep</title>
<polygon fill="lightgrey" stroke="lightgrey" points="1071,-65 1071,-151.75 1560,-151.75 1560,-65 1071,-65"/>
<text xml:space="preserve" text-anchor="middle" x="1315.5" y="-134.45" font-family="Times,serif" font-size="14.00">DShot蜂鸣命令子流程</text>
</g>
<g id="clust3" class="cluster">
<title>cluster_dshot_direction</title>
<polygon fill="lightgrey" stroke="lightgrey" points="598,-206 598,-433.75 1258,-433.75 1258,-206 598,-206"/>
<text xml:space="preserve" text-anchor="middle" x="928" y="-416.45" font-family="Times,serif" font-size="14.00">DShot方向命令子流程</text>
</g>
<g id="clust4" class="cluster">
<title>cluster_dshot_save</title>
<polygon fill="lightgrey" stroke="lightgrey" points="8,-347 8,-433.75 378,-433.75 378,-347 8,-347"/>
<text xml:space="preserve" text-anchor="middle" x="193" y="-416.45" font-family="Times,serif" font-size="14.00">DShot保存设置子流程</text>
</g>
<g id="clust5" class="cluster">
<title>cluster_cmd_cnt</title>
<polygon fill="lightgrey" stroke="lightgrey" points="150,-68.25 150,-314 590,-314 590,-68.25 150,-68.25"/>
<text xml:space="preserve" text-anchor="middle" x="370" y="-296.7" font-family="Times,serif" font-size="14.00">命令计数器子流程</text>
</g>
<!-- dshot_cmd_entry -->
<g id="node1" class="node">
<title>dshot_cmd_entry</title>
<polygon fill="lightgreen" stroke="black" points="960.38,-584.25 847.62,-584.25 847.62,-544.75 960.38,-544.75 960.38,-584.25"/>
<text xml:space="preserve" text-anchor="middle" x="904" y="-568.85" font-family="Arial" font-size="12.00">DShot命令入口点</text>
<text xml:space="preserve" text-anchor="middle" x="904" y="-551.6" font-family="Arial" font-size="12.00">check_dshot_cmd</text>
</g>
<!-- check_dshot_cmd_value -->
<g id="node2" class="node">
<title>check_dshot_cmd_value</title>
<polygon fill="lightblue" stroke="black" points="904,-507.75 789.17,-489.75 904,-471.75 1018.83,-489.75 904,-507.75"/>
<text xml:space="preserve" text-anchor="middle" x="904" y="-486.98" font-family="Arial" font-size="12.00">检查Dshot_Cmd值</text>
</g>
<!-- dshot_cmd_entry&#45;&gt;check_dshot_cmd_value -->
<g id="edge1" class="edge">
<title>dshot_cmd_entry&#45;&gt;check_dshot_cmd_value</title>
<path fill="none" stroke="black" d="M904,-544.39C904,-536.72 904,-527.72 904,-519.3"/>
<polygon fill="black" stroke="black" points="907.5,-519.51 904,-509.51 900.5,-519.51 907.5,-519.51"/>
</g>
<!-- dshot_beep_2 -->
<g id="node3" class="node">
<title>dshot_beep_2</title>
<polygon fill="lightblue" stroke="black" points="1429.25,-115.5 1324.75,-115.5 1324.75,-73 1429.25,-73 1429.25,-115.5"/>
<text xml:space="preserve" text-anchor="middle" x="1377" y="-100.1" font-family="Arial" font-size="12.00">DShot蜂鸣命令2</text>
<text xml:space="preserve" text-anchor="middle" x="1377" y="-82.85" font-family="Arial" font-size="12.00">(低频蜂鸣)</text>
</g>
<!-- check_dshot_cmd_value&#45;&gt;dshot_beep_2 -->
<g id="edge2" class="edge">
<title>check_dshot_cmd_value&#45;&gt;dshot_beep_2</title>
<path fill="none" stroke="black" d="M993.38,-485.33C1087.46,-480.86 1228.88,-471.42 1280,-453.75 1295.5,-448.39 1300.61,-446.44 1311,-433.75 1385.45,-342.82 1384.53,-192.33 1380.05,-127.07"/>
<polygon fill="black" stroke="black" points="1383.57,-127.12 1379.31,-117.42 1376.59,-127.66 1383.57,-127.12"/>
<text xml:space="preserve" text-anchor="middle" x="1380.78" y="-326" font-family="Arial" font-size="10.00">Cmd=2</text>
</g>
<!-- dshot_beep_3 -->
<g id="node4" class="node">
<title>dshot_beep_3</title>
<polygon fill="lightblue" stroke="black" points="1552.25,-115.5 1447.75,-115.5 1447.75,-73 1552.25,-73 1552.25,-115.5"/>
<text xml:space="preserve" text-anchor="middle" x="1500" y="-100.1" font-family="Arial" font-size="12.00">DShot蜂鸣命令3</text>
<text xml:space="preserve" text-anchor="middle" x="1500" y="-82.85" font-family="Arial" font-size="12.00">(中频蜂鸣)</text>
</g>
<!-- check_dshot_cmd_value&#45;&gt;dshot_beep_3 -->
<g id="edge3" class="edge">
<title>check_dshot_cmd_value&#45;&gt;dshot_beep_3</title>
<path fill="none" stroke="black" d="M990.61,-484.82C1090.59,-479.66 1248.63,-469.36 1306,-453.75 1325.95,-448.32 1332.97,-447.95 1348,-433.75 1440.32,-346.52 1480.6,-192.87 1494.23,-126.85"/>
<polygon fill="black" stroke="black" points="1497.59,-127.92 1496.11,-117.42 1490.73,-126.55 1497.59,-127.92"/>
<text xml:space="preserve" text-anchor="middle" x="1442.95" y="-326" font-family="Arial" font-size="10.00">Cmd=3</text>
</g>
<!-- dshot_beep_4 -->
<g id="node5" class="node">
<title>dshot_beep_4</title>
<polygon fill="lightblue" stroke="black" points="1183.25,-115.5 1078.75,-115.5 1078.75,-73 1183.25,-73 1183.25,-115.5"/>
<text xml:space="preserve" text-anchor="middle" x="1131" y="-100.1" font-family="Arial" font-size="12.00">DShot蜂鸣命令4</text>
<text xml:space="preserve" text-anchor="middle" x="1131" y="-82.85" font-family="Arial" font-size="12.00">(高频蜂鸣)</text>
</g>
<!-- check_dshot_cmd_value&#45;&gt;dshot_beep_4 -->
<g id="edge4" class="edge">
<title>check_dshot_cmd_value&#45;&gt;dshot_beep_4</title>
<path fill="none" stroke="black" d="M1006.56,-487.33C1100.45,-483.6 1229.6,-471.51 1262,-433.75 1279.44,-413.43 1275.24,-216.02 1262,-192.75 1244.36,-161.75 1221.66,-172.98 1193,-151.75 1181.57,-143.28 1169.84,-133.06 1159.7,-123.64"/>
<polygon fill="black" stroke="black" points="1162.37,-121.35 1152.7,-117.02 1157.56,-126.43 1162.37,-121.35"/>
<text xml:space="preserve" text-anchor="middle" x="1289.68" y="-326" font-family="Arial" font-size="10.00">Cmd=4</text>
</g>
<!-- dshot_beep_5 -->
<g id="node6" class="node">
<title>dshot_beep_5</title>
<polygon fill="lightblue" stroke="black" points="1306.25,-115.5 1201.75,-115.5 1201.75,-73 1306.25,-73 1306.25,-115.5"/>
<text xml:space="preserve" text-anchor="middle" x="1254" y="-100.1" font-family="Arial" font-size="12.00">DShot蜂鸣命令5</text>
<text xml:space="preserve" text-anchor="middle" x="1254" y="-82.85" font-family="Arial" font-size="12.00">(更高频蜂鸣)</text>
</g>
<!-- check_dshot_cmd_value&#45;&gt;dshot_beep_5 -->
<g id="edge5" class="edge">
<title>check_dshot_cmd_value&#45;&gt;dshot_beep_5</title>
<path fill="none" stroke="black" d="M995.2,-485.57C1083.7,-481.44 1211.16,-472.42 1257,-453.75 1270.18,-448.38 1274.1,-445.58 1282,-433.75 1346.27,-337.53 1295.57,-189.95 1268.38,-126.27"/>
<polygon fill="black" stroke="black" points="1271.59,-124.87 1264.38,-117.12 1265.18,-127.68 1271.59,-124.87"/>
<text xml:space="preserve" text-anchor="middle" x="1329.26" y="-326" font-family="Arial" font-size="10.00">Cmd=5</text>
</g>
<!-- dshot_direction_1 -->
<g id="node7" class="node">
<title>dshot_direction_1</title>
<polygon fill="lightblue" stroke="black" points="710.25,-397.5 605.75,-397.5 605.75,-355 710.25,-355 710.25,-397.5"/>
<text xml:space="preserve" text-anchor="middle" x="658" y="-382.1" font-family="Arial" font-size="12.00">DShot方向命令1</text>
<text xml:space="preserve" text-anchor="middle" x="658" y="-364.85" font-family="Arial" font-size="12.00">(正常方向)</text>
</g>
<!-- check_dshot_cmd_value&#45;&gt;dshot_direction_1 -->
<g id="edge10" class="edge">
<title>check_dshot_cmd_value&#45;&gt;dshot_direction_1</title>
<path fill="none" stroke="black" d="M851.55,-479.61C813.31,-471.43 761.21,-457.06 720,-433.75 706.9,-426.34 694.27,-415.7 683.86,-405.65"/>
<polygon fill="black" stroke="black" points="686.64,-403.48 677.1,-398.86 681.68,-408.42 686.64,-403.48"/>
<text xml:space="preserve" text-anchor="middle" x="778.84" y="-444.25" font-family="Arial" font-size="10.00">Cmd=7</text>
</g>
<!-- dshot_direction_2 -->
<g id="node8" class="node">
<title>dshot_direction_2</title>
<polygon fill="lightblue" stroke="black" points="833.25,-397.5 728.75,-397.5 728.75,-355 833.25,-355 833.25,-397.5"/>
<text xml:space="preserve" text-anchor="middle" x="781" y="-382.1" font-family="Arial" font-size="12.00">DShot方向命令2</text>
<text xml:space="preserve" text-anchor="middle" x="781" y="-364.85" font-family="Arial" font-size="12.00">(反向)</text>
</g>
<!-- check_dshot_cmd_value&#45;&gt;dshot_direction_2 -->
<g id="edge11" class="edge">
<title>check_dshot_cmd_value&#45;&gt;dshot_direction_2</title>
<path fill="none" stroke="black" d="M887.67,-474.07C875.37,-463 858.11,-447.44 843,-433.75 832.9,-424.6 821.9,-414.59 812.01,-405.57"/>
<polygon fill="black" stroke="black" points="814.51,-403.11 804.77,-398.96 809.8,-408.29 814.51,-403.11"/>
<text xml:space="preserve" text-anchor="middle" x="880.9" y="-444.25" font-family="Arial" font-size="10.00">Cmd=8</text>
</g>
<!-- dshot_direction_3 -->
<g id="node9" class="node">
<title>dshot_direction_3</title>
<polygon fill="lightblue" stroke="black" points="956.25,-397.5 851.75,-397.5 851.75,-355 956.25,-355 956.25,-397.5"/>
<text xml:space="preserve" text-anchor="middle" x="904" y="-382.1" font-family="Arial" font-size="12.00">DShot方向命令3</text>
<text xml:space="preserve" text-anchor="middle" x="904" y="-364.85" font-family="Arial" font-size="12.00">(双向模式)</text>
</g>
<!-- check_dshot_cmd_value&#45;&gt;dshot_direction_3 -->
<g id="edge12" class="edge">
<title>check_dshot_cmd_value&#45;&gt;dshot_direction_3</title>
<path fill="none" stroke="black" d="M904,-471.33C904,-454.82 904,-429.61 904,-409.45"/>
<polygon fill="black" stroke="black" points="907.5,-409.47 904,-399.47 900.5,-409.47 907.5,-409.47"/>
<text xml:space="preserve" text-anchor="middle" x="920.12" y="-444.25" font-family="Arial" font-size="10.00">Cmd=9</text>
</g>
<!-- dshot_save_settings -->
<g id="node13" class="node">
<title>dshot_save_settings</title>
<polygon fill="lightblue" stroke="black" points="137.88,-394.25 16.12,-394.25 16.12,-358.25 137.88,-358.25 137.88,-394.25"/>
<text xml:space="preserve" text-anchor="middle" x="77" y="-373.48" font-family="Arial" font-size="12.00">DShot保存设置命令</text>
</g>
<!-- check_dshot_cmd_value&#45;&gt;dshot_save_settings -->
<g id="edge16" class="edge">
<title>check_dshot_cmd_value&#45;&gt;dshot_save_settings</title>
<path fill="none" stroke="black" d="M790.6,-489.05C608.66,-488.11 260.46,-480.07 147,-433.75 129.73,-426.7 113.34,-413.93 100.76,-402.31"/>
<polygon fill="black" stroke="black" points="103.42,-400.01 93.79,-395.59 98.56,-405.05 103.42,-400.01"/>
<text xml:space="preserve" text-anchor="middle" x="239.37" y="-444.25" font-family="Arial" font-size="10.00">Cmd=12</text>
</g>
<!-- reset_cmd_cnt -->
<g id="node16" class="node">
<title>reset_cmd_cnt</title>
<polygon fill="lightblue" stroke="black" points="287.62,-253.25 158.38,-253.25 158.38,-217.25 287.62,-217.25 287.62,-253.25"/>
<text xml:space="preserve" text-anchor="middle" x="223" y="-232.47" font-family="Arial" font-size="12.00">重置Dshot_Cmd_Cnt</text>
</g>
<!-- check_dshot_cmd_value&#45;&gt;reset_cmd_cnt -->
<g id="edge18" class="edge">
<title>check_dshot_cmd_value&#45;&gt;reset_cmd_cnt</title>
<path fill="none" stroke="black" d="M826.51,-483.42C754.72,-476.88 645.67,-462.85 555,-433.75 473.1,-407.47 460.62,-381.88 382,-347 344.96,-330.57 330.67,-336.55 297,-314 275.97,-299.91 256.42,-278.88 242.7,-262.25"/>
<polygon fill="black" stroke="black" points="245.64,-260.32 236.66,-254.71 240.18,-264.7 245.64,-260.32"/>
<text xml:space="preserve" text-anchor="middle" x="574.5" y="-374.25" font-family="Arial" font-size="10.00">其他命令</text>
</g>
<!-- return_to_wait -->
<g id="node21" class="node">
<title>return_to_wait</title>
<polygon fill="lightpink" stroke="black" points="1253,-36 1081,-36 1081,0 1253,0 1253,-36"/>
<text xml:space="preserve" text-anchor="middle" x="1167" y="-15.22" font-family="Arial" font-size="12.00">返回wait_for_power_on_loop</text>
</g>
<!-- dshot_beep_2&#45;&gt;return_to_wait -->
<g id="edge6" class="edge">
<title>dshot_beep_2&#45;&gt;return_to_wait</title>
<path fill="none" stroke="black" d="M1333.6,-72.64C1327.41,-69.95 1321.08,-67.32 1315,-65 1290.91,-55.81 1264.12,-47.05 1240.02,-39.7"/>
<polygon fill="black" stroke="black" points="1241.19,-36.39 1230.61,-36.85 1239.17,-43.1 1241.19,-36.39"/>
</g>
<!-- dshot_beep_3&#45;&gt;return_to_wait -->
<g id="edge7" class="edge">
<title>dshot_beep_3&#45;&gt;return_to_wait</title>
<path fill="none" stroke="black" d="M1458.55,-72.59C1451.79,-69.74 1444.78,-67.08 1438,-65 1381.79,-47.75 1316.91,-36.44 1264.73,-29.36"/>
<polygon fill="black" stroke="black" points="1265.33,-25.91 1254.96,-28.07 1264.41,-32.85 1265.33,-25.91"/>
</g>
<!-- dshot_beep_4&#45;&gt;return_to_wait -->
<g id="edge8" class="edge">
<title>dshot_beep_4&#45;&gt;return_to_wait</title>
<path fill="none" stroke="black" d="M1141.03,-72.57C1144.99,-64.39 1149.6,-54.88 1153.83,-46.16"/>
<polygon fill="black" stroke="black" points="1156.85,-47.95 1158.07,-37.43 1150.55,-44.9 1156.85,-47.95"/>
</g>
<!-- dshot_beep_5&#45;&gt;return_to_wait -->
<g id="edge9" class="edge">
<title>dshot_beep_5&#45;&gt;return_to_wait</title>
<path fill="none" stroke="black" d="M1229.77,-72.57C1219.21,-63.56 1206.76,-52.94 1195.75,-43.53"/>
<polygon fill="black" stroke="black" points="1198.31,-41.12 1188.43,-37.29 1193.77,-46.45 1198.31,-41.12"/>
</g>
<!-- check_cmd_cnt -->
<g id="node14" class="node">
<title>check_cmd_cnt</title>
<polygon fill="lightblue" stroke="black" points="444,-277.75 305.75,-235.25 444,-192.75 582.25,-235.25 444,-277.75"/>
<text xml:space="preserve" text-anchor="middle" x="444" y="-241.1" font-family="Arial" font-size="12.00">检查Dshot_Cmd_Cnt</text>
<text xml:space="preserve" text-anchor="middle" x="444" y="-223.85" font-family="Arial" font-size="12.00">(需要连续6次相同命令)</text>
</g>
<!-- dshot_direction_1&#45;&gt;check_cmd_cnt -->
<g id="edge13" class="edge">
<title>dshot_direction_1&#45;&gt;check_cmd_cnt</title>
<path fill="none" stroke="black" d="M626.42,-354.74C592.41,-332.65 537.71,-297.12 497.07,-270.72"/>
<polygon fill="black" stroke="black" points="499.14,-267.89 488.85,-265.38 495.33,-273.76 499.14,-267.89"/>
</g>
<!-- dshot_direction_2&#45;&gt;check_cmd_cnt -->
<g id="edge14" class="edge">
<title>dshot_direction_2&#45;&gt;check_cmd_cnt</title>
<path fill="none" stroke="black" d="M738.79,-354.58C732.25,-351.8 725.51,-349.16 719,-347 699.15,-340.4 693.28,-342.15 673,-337 637.56,-328 627.95,-327.59 594,-314 562.35,-301.33 528.52,-284.14 501.01,-269.14"/>
<polygon fill="black" stroke="black" points="502.96,-266.22 492.51,-264.46 499.58,-272.35 502.96,-266.22"/>
</g>
<!-- dshot_direction_3&#45;&gt;check_cmd_cnt -->
<g id="edge15" class="edge">
<title>dshot_direction_3&#45;&gt;check_cmd_cnt</title>
<path fill="none" stroke="black" d="M864.06,-354.59C856.87,-351.59 849.33,-348.88 842,-347 784.15,-332.17 766.69,-348.03 708,-337 685.62,-332.79 681.28,-326.74 659,-322 630.53,-315.94 621.8,-322.61 594,-314 560.56,-303.64 525.7,-286.05 498.01,-270.21"/>
<polygon fill="black" stroke="black" points="499.86,-267.24 489.46,-265.23 496.34,-273.29 499.86,-267.24"/>
</g>
<!-- dshot_direction_normal -->
<g id="node10" class="node">
<title>dshot_direction_normal</title>
<polygon fill="lightblue" stroke="black" points="1168,-394.25 1080,-394.25 1080,-358.25 1168,-358.25 1168,-394.25"/>
<text xml:space="preserve" text-anchor="middle" x="1124" y="-373.48" font-family="Arial" font-size="12.00">设置正常方向</text>
</g>
<!-- set_normal_flags -->
<g id="node17" class="node">
<title>set_normal_flags</title>
<polygon fill="lightblue" stroke="black" points="922.5,-256.5 795.5,-256.5 795.5,-214 922.5,-214 922.5,-256.5"/>
<text xml:space="preserve" text-anchor="middle" x="859" y="-241.1" font-family="Arial" font-size="12.00">清除PGM_DIR_REV</text>
<text xml:space="preserve" text-anchor="middle" x="859" y="-223.85" font-family="Arial" font-size="12.00">清除PGM_BIDIR</text>
</g>
<!-- dshot_direction_normal&#45;&gt;set_normal_flags -->
<g id="edge26" class="edge">
<title>dshot_direction_normal&#45;&gt;set_normal_flags</title>
<path fill="none" stroke="black" d="M1092.28,-357.76C1085.33,-354.09 1077.96,-350.32 1071,-347 1045.3,-334.73 1039.54,-329.27 1012,-322 982.15,-314.12 971.05,-326.9 943,-314 919.17,-303.04 897.58,-282.71 882.26,-265.59"/>
<polygon fill="black" stroke="black" points="885.01,-263.42 875.83,-258.14 879.72,-268 885.01,-263.42"/>
</g>
<!-- dshot_direction_reverse -->
<g id="node11" class="node">
<title>dshot_direction_reverse</title>
<polygon fill="lightblue" stroke="black" points="1250,-394.25 1186,-394.25 1186,-358.25 1250,-358.25 1250,-394.25"/>
<text xml:space="preserve" text-anchor="middle" x="1218" y="-373.48" font-family="Arial" font-size="12.00">设置反向</text>
</g>
<!-- set_reverse_flags -->
<g id="node18" class="node">
<title>set_reverse_flags</title>
<polygon fill="lightblue" stroke="black" points="1078.5,-256.5 951.5,-256.5 951.5,-214 1078.5,-214 1078.5,-256.5"/>
<text xml:space="preserve" text-anchor="middle" x="1015" y="-241.1" font-family="Arial" font-size="12.00">设置PGM_DIR_REV</text>
<text xml:space="preserve" text-anchor="middle" x="1015" y="-223.85" font-family="Arial" font-size="12.00">清除PGM_BIDIR</text>
</g>
<!-- dshot_direction_reverse&#45;&gt;set_reverse_flags -->
<g id="edge27" class="edge">
<title>dshot_direction_reverse&#45;&gt;set_reverse_flags</title>
<path fill="none" stroke="black" d="M1192.86,-357.91C1187.62,-354.3 1182.13,-350.52 1177,-347 1135.2,-318.31 1087.26,-285.55 1054.44,-263.15"/>
<polygon fill="black" stroke="black" points="1056.66,-260.43 1046.43,-257.69 1052.72,-266.21 1056.66,-260.43"/>
</g>
<!-- dshot_direction_bidir -->
<g id="node12" class="node">
<title>dshot_direction_bidir</title>
<polygon fill="lightblue" stroke="black" points="1062,-394.25 974,-394.25 974,-358.25 1062,-358.25 1062,-394.25"/>
<text xml:space="preserve" text-anchor="middle" x="1018" y="-373.48" font-family="Arial" font-size="12.00">设置双向模式</text>
</g>
<!-- set_bidir_flags -->
<g id="node19" class="node">
<title>set_bidir_flags</title>
<polygon fill="lightblue" stroke="black" points="755,-253.25 649,-253.25 649,-217.25 755,-217.25 755,-253.25"/>
<text xml:space="preserve" text-anchor="middle" x="702" y="-232.47" font-family="Arial" font-size="12.00">设置PGM_BIDIR</text>
</g>
<!-- dshot_direction_bidir&#45;&gt;set_bidir_flags -->
<g id="edge28" class="edge">
<title>dshot_direction_bidir&#45;&gt;set_bidir_flags</title>
<path fill="none" stroke="black" d="M1015.71,-358C1013.49,-344.23 1009.63,-326.51 1004,-322 985.17,-306.92 809.33,-323.15 787,-314 760.6,-303.18 737.23,-280.28 721.71,-262.12"/>
<polygon fill="black" stroke="black" points="724.76,-260.32 715.7,-254.82 719.36,-264.77 724.76,-260.32"/>
</g>
<!-- dshot_save_settings&#45;&gt;check_cmd_cnt -->
<g id="edge17" class="edge">
<title>dshot_save_settings&#45;&gt;check_cmd_cnt</title>
<path fill="none" stroke="black" d="M116.93,-357.8C126.66,-353.92 137.11,-350.06 147,-347 212.21,-326.82 232.91,-337.5 297,-314 328.61,-302.41 361.92,-285.25 388.82,-269.99"/>
<polygon fill="black" stroke="black" points="390.57,-273.03 397.49,-265.01 387.08,-266.96 390.57,-273.03"/>
</g>
<!-- check_cmd_cnt&#45;&gt;dshot_direction_normal -->
<g id="edge21" class="edge">
<title>check_cmd_cnt&#45;&gt;dshot_direction_normal</title>
<path fill="none" stroke="black" d="M486.87,-264.98C515.8,-282.68 555.57,-303.87 594,-314 640.23,-326.18 763.14,-308.48 809,-322 821.52,-325.69 821.74,-333.28 834.25,-337 884.72,-352.01 1020.19,-333.16 1071,-347 1076.26,-348.43 1081.58,-350.46 1086.71,-352.77"/>
<polygon fill="black" stroke="black" points="1085.05,-355.85 1095.56,-357.16 1088.16,-349.58 1085.05,-355.85"/>
<text xml:space="preserve" text-anchor="middle" x="870.62" y="-327.5" font-family="Arial" font-size="10.00">计数=6且Cmd=7</text>
</g>
<!-- check_cmd_cnt&#45;&gt;dshot_direction_reverse -->
<g id="edge22" class="edge">
<title>check_cmd_cnt&#45;&gt;dshot_direction_reverse</title>
<path fill="none" stroke="black" d="M486.51,-264.93C515.45,-282.74 555.37,-304.06 594,-314 627.69,-322.67 872.27,-319.91 907,-322 977.52,-326.24 994.9,-330.52 1065.25,-337 1114.9,-341.57 1130.09,-330.08 1177,-347 1180.5,-348.26 1183.97,-349.9 1187.34,-351.74"/>
<polygon fill="black" stroke="black" points="1185.4,-354.65 1195.74,-356.96 1189.09,-348.71 1185.4,-354.65"/>
<text xml:space="preserve" text-anchor="middle" x="1101.62" y="-327.5" font-family="Arial" font-size="10.00">计数=6且Cmd=8</text>
</g>
<!-- check_cmd_cnt&#45;&gt;dshot_direction_bidir -->
<g id="edge23" class="edge">
<title>check_cmd_cnt&#45;&gt;dshot_direction_bidir</title>
<path fill="none" stroke="black" d="M487.33,-264.67C516.29,-282.12 555.92,-303.15 594,-314 638.59,-326.7 652.81,-311.65 698,-322 715.8,-326.08 718.39,-333.22 736.25,-337 786.03,-347.54 915.92,-333.59 965,-347 970.26,-348.44 975.57,-350.46 980.71,-352.78"/>
<polygon fill="black" stroke="black" points="979.05,-355.86 989.56,-357.17 982.16,-349.59 979.05,-355.86"/>
<text xml:space="preserve" text-anchor="middle" x="772.62" y="-327.5" font-family="Arial" font-size="10.00">计数=6且Cmd=9</text>
</g>
<!-- increment_cmd_cnt -->
<g id="node15" class="node">
<title>increment_cmd_cnt</title>
<polygon fill="lightblue" stroke="black" points="562.62,-112.25 433.38,-112.25 433.38,-76.25 562.62,-76.25 562.62,-112.25"/>
<text xml:space="preserve" text-anchor="middle" x="498" y="-91.47" font-family="Arial" font-size="12.00">递增Dshot_Cmd_Cnt</text>
</g>
<!-- check_cmd_cnt&#45;&gt;increment_cmd_cnt -->
<g id="edge20" class="edge">
<title>check_cmd_cnt&#45;&gt;increment_cmd_cnt</title>
<path fill="none" stroke="black" d="M458.47,-197C467.47,-173.82 478.87,-144.5 487.11,-123.29"/>
<polygon fill="black" stroke="black" points="490.3,-124.73 490.66,-114.14 483.78,-122.19 490.3,-124.73"/>
<text xml:space="preserve" text-anchor="middle" x="487.99" y="-165.25" font-family="Arial" font-size="10.00">计数&lt;6</text>
</g>
<!-- save_to_eeprom -->
<g id="node20" class="node">
<title>save_to_eeprom</title>
<polygon fill="lightblue" stroke="black" points="369.62,-397.5 156.38,-397.5 156.38,-355 369.62,-355 369.62,-397.5"/>
<text xml:space="preserve" text-anchor="middle" x="263" y="-382.1" font-family="Arial" font-size="12.00">设置Flash密钥</text>
<text xml:space="preserve" text-anchor="middle" x="263" y="-364.85" font-family="Arial" font-size="12.00">调用erase_and_store_all_in_eeprom</text>
</g>
<!-- check_cmd_cnt&#45;&gt;save_to_eeprom -->
<g id="edge24" class="edge">
<title>check_cmd_cnt&#45;&gt;save_to_eeprom</title>
<path fill="none" stroke="black" d="M454.09,-274.87C457.08,-295.61 456.37,-320.28 442,-337 433.48,-346.92 396.82,-344.4 384,-347 376.15,-348.59 368.03,-350.32 359.89,-352.1"/>
<polygon fill="black" stroke="black" points="359.28,-348.65 350.27,-354.24 360.79,-355.48 359.28,-348.65"/>
<text xml:space="preserve" text-anchor="middle" x="489.22" y="-327.5" font-family="Arial" font-size="10.00">计数=6且Cmd=12</text>
</g>
<!-- increment_cmd_cnt&#45;&gt;return_to_wait -->
<g id="edge25" class="edge">
<title>increment_cmd_cnt&#45;&gt;return_to_wait</title>
<path fill="none" stroke="black" d="M562.95,-84.47C625.63,-76.14 723.22,-63.5 808,-54 896.31,-44.11 997.03,-34.43 1069.26,-27.76"/>
<polygon fill="black" stroke="black" points="1069.46,-31.26 1079.1,-26.86 1068.82,-24.29 1069.46,-31.26"/>
</g>
<!-- reset_cmd_cnt&#45;&gt;return_to_wait -->
<g id="edge19" class="edge">
<title>reset_cmd_cnt&#45;&gt;return_to_wait</title>
<path fill="none" stroke="black" d="M247.81,-216.81C261.63,-208.02 279.54,-198.12 297,-192.75 386.54,-165.22 414.5,-189.55 507,-174.75 724.01,-140.03 975.47,-73.13 1095.75,-39.44"/>
<polygon fill="black" stroke="black" points="1096.49,-42.87 1105.17,-36.8 1094.6,-36.13 1096.49,-42.87"/>
</g>
<!-- set_normal_flags&#45;&gt;reset_cmd_cnt -->
<g id="edge29" class="edge">
<title>set_normal_flags&#45;&gt;reset_cmd_cnt</title>
<path fill="none" stroke="black" d="M843.52,-256.83C825.36,-280.1 792.88,-315.77 755,-330.5 708.5,-348.58 351.41,-351.16 306,-330.5 275.88,-316.79 252.43,-286.15 238.25,-263.3"/>
<polygon fill="black" stroke="black" points="241.29,-261.56 233.17,-254.74 235.27,-265.13 241.29,-261.56"/>
</g>
<!-- set_reverse_flags&#45;&gt;reset_cmd_cnt -->
<g id="edge30" class="edge">
<title>set_reverse_flags&#45;&gt;reset_cmd_cnt</title>
<path fill="none" stroke="black" d="M1001.91,-256.76C986.38,-279.97 958.13,-315.59 923,-330.5 891.45,-343.89 337.2,-344.7 306,-330.5 275.88,-316.79 252.43,-286.15 238.25,-263.3"/>
<polygon fill="black" stroke="black" points="241.29,-261.56 233.17,-254.74 235.27,-265.13 241.29,-261.56"/>
</g>
<!-- set_bidir_flags&#45;&gt;reset_cmd_cnt -->
<g id="edge31" class="edge">
<title>set_bidir_flags&#45;&gt;reset_cmd_cnt</title>
<path fill="none" stroke="black" d="M686.89,-253.61C666.56,-276.72 627.94,-315.23 585,-330.5 555.79,-340.89 334.22,-343.34 306,-330.5 275.88,-316.79 252.43,-286.15 238.25,-263.3"/>
<polygon fill="black" stroke="black" points="241.29,-261.56 233.17,-254.74 235.27,-265.13 241.29,-261.56"/>
</g>
<!-- save_to_eeprom&#45;&gt;reset_cmd_cnt -->
<g id="edge32" class="edge">
<title>save_to_eeprom&#45;&gt;reset_cmd_cnt</title>
<path fill="none" stroke="black" d="M257.1,-354.74C250.21,-330.79 238.77,-291.06 231.07,-264.28"/>
<polygon fill="black" stroke="black" points="234.46,-263.43 228.34,-254.79 227.74,-265.37 234.46,-263.43"/>
</g>
</g>
</svg>
