<?xml version="1.0" encoding="UTF-8" standalone="no"?>
<!DOCTYPE svg PUBLIC "-//W3C//DTD SVG 1.1//EN"
 "http://www.w3.org/Graphics/SVG/1.1/DTD/svg11.dtd">
<!-- Generated by graphviz version 13.0.1 (20250615.1724)
 -->
<!-- Title: BLHeli_S_Run_Phase_Flow Pages: 1 -->
<svg width="1165pt" height="1028pt"
 viewBox="0.00 0.00 1165.00 1028.00" xmlns="http://www.w3.org/2000/svg" xmlns:xlink="http://www.w3.org/1999/xlink">
<g id="graph0" class="graph" transform="scale(1 1) rotate(0) translate(4 1023.75)">
<title>BLHeli_S_Run_Phase_Flow</title>
<polygon fill="white" stroke="none" points="-4,4 -4,-1023.75 1161.47,-1023.75 1161.47,4 -4,4"/>
<g id="clust1" class="cluster">
<title>cluster_run_phases</title>
<polygon fill="lightgrey" stroke="lightgrey" points="565,-8 565,-475.75 680,-475.75 680,-8 565,-8"/>
<text xml:space="preserve" text-anchor="middle" x="622.5" y="-458.45" font-family="Times,serif" font-size="14.00">运行阶段子流程</text>
</g>
<g id="clust2" class="cluster">
<title>cluster_startup_check</title>
<polygon fill="lightgrey" stroke="lightgrey" points="783,-508.75 783,-855.5 1115,-855.5 1115,-508.75 783,-508.75"/>
<text xml:space="preserve" text-anchor="middle" x="949" y="-838.2" font-family="Times,serif" font-size="14.00">启动阶段检查子流程</text>
</g>
<g id="clust3" class="cluster">
<title>cluster_initial_run_check</title>
<polygon fill="lightgrey" stroke="lightgrey" points="429,-602.25 429,-1011.75 775,-1011.75 775,-602.25 429,-602.25"/>
<text xml:space="preserve" text-anchor="middle" x="602" y="-994.45" font-family="Times,serif" font-size="14.00">初始运行阶段检查子流程</text>
</g>
<g id="clust4" class="cluster">
<title>cluster_run_state_check</title>
<polygon fill="lightgrey" stroke="lightgrey" points="8,-390.5 8,-834 389,-834 389,-390.5 8,-390.5"/>
<text xml:space="preserve" text-anchor="middle" x="198.5" y="-816.7" font-family="Times,serif" font-size="14.00">运行状态检查子流程</text>
</g>
<!-- run1 -->
<g id="node1" class="node">
<title>run1</title>
<polygon fill="lightgreen" stroke="black" points="644.38,-439.5 573.62,-439.5 573.62,-400 644.38,-400 644.38,-439.5"/>
<text xml:space="preserve" text-anchor="middle" x="609" y="-424.1" font-family="Arial" font-size="12.00">运行阶段1</text>
<text xml:space="preserve" text-anchor="middle" x="609" y="-406.85" font-family="Arial" font-size="12.00">run1</text>
</g>
<!-- run2 -->
<g id="node2" class="node">
<title>run2</title>
<polygon fill="lightgreen" stroke="black" points="644.38,-361.5 573.62,-361.5 573.62,-322 644.38,-322 644.38,-361.5"/>
<text xml:space="preserve" text-anchor="middle" x="609" y="-346.1" font-family="Arial" font-size="12.00">运行阶段2</text>
<text xml:space="preserve" text-anchor="middle" x="609" y="-328.85" font-family="Arial" font-size="12.00">run2</text>
</g>
<!-- run1&#45;&gt;run2 -->
<g id="edge1" class="edge">
<title>run1&#45;&gt;run2</title>
<path fill="none" stroke="black" d="M609,-399.57C609,-391.56 609,-382.06 609,-373.14"/>
<polygon fill="black" stroke="black" points="612.5,-373.44 609,-363.44 605.5,-373.44 612.5,-373.44"/>
</g>
<!-- run3 -->
<g id="node3" class="node">
<title>run3</title>
<polygon fill="lightgreen" stroke="black" points="644.38,-285 573.62,-285 573.62,-245.5 644.38,-245.5 644.38,-285"/>
<text xml:space="preserve" text-anchor="middle" x="609" y="-269.6" font-family="Arial" font-size="12.00">运行阶段3</text>
<text xml:space="preserve" text-anchor="middle" x="609" y="-252.35" font-family="Arial" font-size="12.00">run3</text>
</g>
<!-- run2&#45;&gt;run3 -->
<g id="edge2" class="edge">
<title>run2&#45;&gt;run3</title>
<path fill="none" stroke="black" d="M609,-321.56C609,-314 609,-305.13 609,-296.74"/>
<polygon fill="black" stroke="black" points="612.5,-296.88 609,-286.88 605.5,-296.88 612.5,-296.88"/>
</g>
<!-- run4 -->
<g id="node4" class="node">
<title>run4</title>
<polygon fill="lightgreen" stroke="black" points="644.38,-208.5 573.62,-208.5 573.62,-169 644.38,-169 644.38,-208.5"/>
<text xml:space="preserve" text-anchor="middle" x="609" y="-193.1" font-family="Arial" font-size="12.00">运行阶段4</text>
<text xml:space="preserve" text-anchor="middle" x="609" y="-175.85" font-family="Arial" font-size="12.00">run4</text>
</g>
<!-- run3&#45;&gt;run4 -->
<g id="edge3" class="edge">
<title>run3&#45;&gt;run4</title>
<path fill="none" stroke="black" d="M609,-245.06C609,-237.5 609,-228.63 609,-220.24"/>
<polygon fill="black" stroke="black" points="612.5,-220.38 609,-210.38 605.5,-220.38 612.5,-220.38"/>
</g>
<!-- run5 -->
<g id="node5" class="node">
<title>run5</title>
<polygon fill="lightgreen" stroke="black" points="665.38,-132 594.62,-132 594.62,-92.5 665.38,-92.5 665.38,-132"/>
<text xml:space="preserve" text-anchor="middle" x="630" y="-116.6" font-family="Arial" font-size="12.00">运行阶段5</text>
<text xml:space="preserve" text-anchor="middle" x="630" y="-99.35" font-family="Arial" font-size="12.00">run5</text>
</g>
<!-- run4&#45;&gt;run5 -->
<g id="edge4" class="edge">
<title>run4&#45;&gt;run5</title>
<path fill="none" stroke="black" d="M614.41,-168.56C616.56,-160.92 619.1,-151.93 621.49,-143.45"/>
<polygon fill="black" stroke="black" points="624.86,-144.4 624.2,-133.83 618.12,-142.5 624.86,-144.4"/>
</g>
<!-- run6 -->
<g id="node6" class="node">
<title>run6</title>
<polygon fill="lightgreen" stroke="black" points="672.38,-55.5 601.62,-55.5 601.62,-16 672.38,-16 672.38,-55.5"/>
<text xml:space="preserve" text-anchor="middle" x="637" y="-40.1" font-family="Arial" font-size="12.00">运行阶段6</text>
<text xml:space="preserve" text-anchor="middle" x="637" y="-22.85" font-family="Arial" font-size="12.00">run6</text>
</g>
<!-- run5&#45;&gt;run6 -->
<g id="edge5" class="edge">
<title>run5&#45;&gt;run6</title>
<path fill="none" stroke="black" d="M631.8,-92.06C632.51,-84.5 633.35,-75.63 634.14,-67.24"/>
<polygon fill="black" stroke="black" points="637.61,-67.66 635.06,-57.38 630.64,-67.01 637.61,-67.66"/>
</g>
<!-- check_startup_phase -->
<g id="node7" class="node">
<title>check_startup_phase</title>
<polygon fill="lightyellow" stroke="black" points="970,-819.25 849,-779.75 970,-740.25 1091,-779.75 970,-819.25"/>
<text xml:space="preserve" text-anchor="middle" x="970" y="-784.1" font-family="Arial" font-size="12.00">检查启动阶段</text>
<text xml:space="preserve" text-anchor="middle" x="970" y="-766.85" font-family="Arial" font-size="12.00">STARTUP_PHASE</text>
</g>
<!-- run6&#45;&gt;check_startup_phase -->
<g id="edge6" class="edge">
<title>run6&#45;&gt;check_startup_phase</title>
<path fill="none" stroke="black" d="M672.81,-38.33C787,-43.84 1135,-64.48 1135,-111.25 1135,-650.75 1135,-650.75 1135,-650.75 1135,-701.71 1085.26,-735.29 1040.4,-755.22"/>
<polygon fill="black" stroke="black" points="1039.26,-751.91 1031.43,-759.04 1042,-758.35 1039.26,-751.91"/>
</g>
<!-- check_startup_cnt -->
<g id="node8" class="node">
<title>check_startup_cnt</title>
<polygon fill="lightblue" stroke="black" points="970,-667.75 870.8,-649.75 970,-631.75 1069.2,-649.75 970,-667.75"/>
<text xml:space="preserve" text-anchor="middle" x="970" y="-646.98" font-family="Arial" font-size="12.00">检查启动计数器</text>
</g>
<!-- check_startup_phase&#45;&gt;check_startup_cnt -->
<g id="edge7" class="edge">
<title>check_startup_phase&#45;&gt;check_startup_cnt</title>
<path fill="none" stroke="black" d="M970,-740C970,-720.51 970,-697.3 970,-679.43"/>
<polygon fill="black" stroke="black" points="973.5,-679.54 970,-669.54 966.5,-679.54 973.5,-679.54"/>
<text xml:space="preserve" text-anchor="middle" x="974.88" y="-712.75" font-family="Arial" font-size="10.00">是</text>
</g>
<!-- check_initial_run_phase -->
<g id="node10" class="node">
<title>check_initial_run_phase</title>
<polygon fill="lightyellow" stroke="black" points="628,-975.5 489,-936 628,-896.5 767,-936 628,-975.5"/>
<text xml:space="preserve" text-anchor="middle" x="628" y="-940.35" font-family="Arial" font-size="12.00">检查初始运行阶段</text>
<text xml:space="preserve" text-anchor="middle" x="628" y="-923.1" font-family="Arial" font-size="12.00">INITIAL_RUN_PHASE</text>
</g>
<!-- check_startup_phase&#45;&gt;check_initial_run_phase -->
<g id="edge8" class="edge">
<title>check_startup_phase&#45;&gt;check_initial_run_phase</title>
<path fill="none" stroke="black" d="M919.88,-803.36C859.3,-830.68 757.29,-876.69 691.33,-906.44"/>
<polygon fill="black" stroke="black" points="690.12,-903.14 682.44,-910.45 693,-909.52 690.12,-903.14"/>
<text xml:space="preserve" text-anchor="middle" x="783.4" y="-869" font-family="Arial" font-size="10.00">否</text>
</g>
<!-- check_rcp -->
<g id="node9" class="node">
<title>check_rcp</title>
<polygon fill="lightblue" stroke="black" points="872,-556 790.65,-538 872,-520 953.35,-538 872,-556"/>
<text xml:space="preserve" text-anchor="middle" x="872" y="-535.23" font-family="Arial" font-size="12.00">检查RC脉冲</text>
</g>
<!-- check_startup_cnt&#45;&gt;check_rcp -->
<g id="edge10" class="edge">
<title>check_startup_cnt&#45;&gt;check_rcp</title>
<path fill="none" stroke="black" d="M956.78,-633.95C940.25,-615.44 911.77,-583.54 892.43,-561.88"/>
<polygon fill="black" stroke="black" points="895.29,-559.82 886.02,-554.7 890.07,-564.49 895.29,-559.82"/>
<text xml:space="preserve" text-anchor="middle" x="936.06" y="-582.75" font-family="Arial" font-size="10.00">计数&lt;24</text>
</g>
<!-- clear_startup_phase -->
<g id="node17" class="node">
<title>clear_startup_phase</title>
<polygon fill="lightblue" stroke="black" points="1107,-559.25 971,-559.25 971,-516.75 1107,-516.75 1107,-559.25"/>
<text xml:space="preserve" text-anchor="middle" x="1039" y="-543.85" font-family="Arial" font-size="12.00">清除启动阶段标志</text>
<text xml:space="preserve" text-anchor="middle" x="1039" y="-526.6" font-family="Arial" font-size="12.00">设置初始运行阶段标志</text>
</g>
<!-- check_startup_cnt&#45;&gt;clear_startup_phase -->
<g id="edge9" class="edge">
<title>check_startup_cnt&#45;&gt;clear_startup_phase</title>
<path fill="none" stroke="black" d="M979.59,-633.49C989.97,-616.99 1006.78,-590.26 1019.87,-569.43"/>
<polygon fill="black" stroke="black" points="1022.79,-571.36 1025.15,-561.03 1016.86,-567.63 1022.79,-571.36"/>
<text xml:space="preserve" text-anchor="middle" x="1035.71" y="-582.75" font-family="Arial" font-size="10.00">计数&gt;=24</text>
</g>
<!-- check_rcp&#45;&gt;run1 -->
<g id="edge11" class="edge">
<title>check_rcp&#45;&gt;run1</title>
<path fill="none" stroke="black" d="M856.4,-523.15C842.43,-511.35 820.99,-494.61 800,-483.75 753.33,-459.59 695.52,-442.06 655.8,-431.72"/>
<polygon fill="black" stroke="black" points="656.87,-428.38 646.32,-429.31 655.14,-435.16 656.87,-428.38"/>
<text xml:space="preserve" text-anchor="middle" x="845.99" y="-489.25" font-family="Arial" font-size="10.00">RC脉冲&gt;0</text>
</g>
<!-- run_to_wait_for_power_on -->
<g id="node21" class="node">
<title>run_to_wait_for_power_on</title>
<polygon fill="lightpink" stroke="black" points="555.25,-439.5 396.75,-439.5 396.75,-400 555.25,-400 555.25,-439.5"/>
<text xml:space="preserve" text-anchor="middle" x="476" y="-424.1" font-family="Arial" font-size="12.00">返回等待加电</text>
<text xml:space="preserve" text-anchor="middle" x="476" y="-406.85" font-family="Arial" font-size="12.00">run_to_wait_for_power_on</text>
</g>
<!-- check_rcp&#45;&gt;run_to_wait_for_power_on -->
<g id="edge12" class="edge">
<title>check_rcp&#45;&gt;run_to_wait_for_power_on</title>
<path fill="none" stroke="black" d="M814.53,-532.25C750.67,-525.5 645.43,-509.9 561,-475.75 542.65,-468.33 523.99,-456.79 508.85,-446.2"/>
<polygon fill="black" stroke="black" points="511.3,-443.65 501.14,-440.65 507.22,-449.33 511.3,-443.65"/>
<text xml:space="preserve" text-anchor="middle" x="649.44" y="-489.25" font-family="Arial" font-size="10.00">RC脉冲=0</text>
</g>
<!-- check_initial_run_rot -->
<g id="node11" class="node">
<title>check_initial_run_rot</title>
<polygon fill="lightblue" stroke="black" points="628,-797.75 493.08,-779.75 628,-761.75 762.92,-779.75 628,-797.75"/>
<text xml:space="preserve" text-anchor="middle" x="628" y="-776.98" font-family="Arial" font-size="12.00">检查初始运行旋转计数</text>
</g>
<!-- check_initial_run_phase&#45;&gt;check_initial_run_rot -->
<g id="edge15" class="edge">
<title>check_initial_run_phase&#45;&gt;check_initial_run_rot</title>
<path fill="none" stroke="black" d="M628,-896.08C628,-869.05 628,-833.65 628,-809.23"/>
<polygon fill="black" stroke="black" points="631.5,-809.41 628,-799.41 624.5,-809.41 631.5,-809.41"/>
<text xml:space="preserve" text-anchor="middle" x="671.88" y="-869" font-family="Arial" font-size="10.00">是且非方向变化刹车</text>
</g>
<!-- check_timeout -->
<g id="node13" class="node">
<title>check_timeout</title>
<polygon fill="lightblue" stroke="black" points="318,-797.75 254.51,-779.75 318,-761.75 381.49,-779.75 318,-797.75"/>
<text xml:space="preserve" text-anchor="middle" x="318" y="-776.98" font-family="Arial" font-size="12.00">检查超时</text>
</g>
<!-- check_initial_run_phase&#45;&gt;check_timeout -->
<g id="edge14" class="edge">
<title>check_initial_run_phase&#45;&gt;check_timeout</title>
<path fill="none" stroke="black" d="M564.1,-914.35C523.24,-900.1 469.71,-879.44 425,-855.5 395.2,-839.55 363.8,-816.81 342.79,-800.61"/>
<polygon fill="black" stroke="black" points="345.13,-798 335.09,-794.6 340.82,-803.52 345.13,-798"/>
<text xml:space="preserve" text-anchor="middle" x="472.73" y="-869" font-family="Arial" font-size="10.00">否</text>
</g>
<!-- check_bidir -->
<g id="node12" class="node">
<title>check_bidir</title>
<polygon fill="lightyellow" stroke="black" points="525,-689.25 437,-649.75 525,-610.25 613,-649.75 525,-689.25"/>
<text xml:space="preserve" text-anchor="middle" x="525" y="-654.1" font-family="Arial" font-size="12.00">检查双向模式</text>
<text xml:space="preserve" text-anchor="middle" x="525" y="-636.85" font-family="Arial" font-size="12.00">PGM_BIDIR</text>
</g>
<!-- check_initial_run_rot&#45;&gt;check_bidir -->
<g id="edge17" class="edge">
<title>check_initial_run_rot&#45;&gt;check_bidir</title>
<path fill="none" stroke="black" d="M615.37,-763.05C600.44,-744.5 575.1,-713.01 555.04,-688.09"/>
<polygon fill="black" stroke="black" points="557.87,-686.01 548.87,-680.42 552.41,-690.4 557.87,-686.01"/>
<text xml:space="preserve" text-anchor="middle" x="594.96" y="-712.75" font-family="Arial" font-size="10.00">计数&gt;0</text>
</g>
<!-- clear_initial_run_phase -->
<g id="node18" class="node">
<title>clear_initial_run_phase</title>
<polygon fill="lightblue" stroke="black" points="767,-671 631,-671 631,-628.5 767,-628.5 767,-671"/>
<text xml:space="preserve" text-anchor="middle" x="699" y="-655.6" font-family="Arial" font-size="12.00">清除初始运行阶段标志</text>
<text xml:space="preserve" text-anchor="middle" x="699" y="-638.35" font-family="Arial" font-size="12.00">设置电机已启动标志</text>
</g>
<!-- check_initial_run_rot&#45;&gt;clear_initial_run_phase -->
<g id="edge16" class="edge">
<title>check_initial_run_rot&#45;&gt;clear_initial_run_phase</title>
<path fill="none" stroke="black" d="M636.99,-762.54C648.27,-742.2 667.85,-706.9 682,-681.4"/>
<polygon fill="black" stroke="black" points="684.97,-683.25 686.76,-672.81 678.85,-679.86 684.97,-683.25"/>
<text xml:space="preserve" text-anchor="middle" x="681" y="-712.75" font-family="Arial" font-size="10.00">计数=0</text>
</g>
<!-- check_bidir&#45;&gt;run1 -->
<g id="edge18" class="edge">
<title>check_bidir&#45;&gt;run1</title>
<path fill="none" stroke="black" d="M537.21,-615.6C553.55,-571.25 582.28,-493.27 597.99,-450.64"/>
<polygon fill="black" stroke="black" points="601.26,-451.88 601.43,-441.28 594.69,-449.46 601.26,-451.88"/>
<text xml:space="preserve" text-anchor="middle" x="580.23" y="-536" font-family="Arial" font-size="10.00">是</text>
</g>
<!-- check_bidir&#45;&gt;check_rcp -->
<g id="edge19" class="edge">
<title>check_bidir&#45;&gt;check_rcp</title>
<path fill="none" stroke="black" d="M564.35,-627.69C581.68,-618.99 602.51,-609.31 622,-602.25 688.14,-578.3 767.26,-559.92 818.52,-549.3"/>
<polygon fill="black" stroke="black" points="819.07,-552.76 828.17,-547.33 817.67,-545.9 819.07,-552.76"/>
<text xml:space="preserve" text-anchor="middle" x="701.12" y="-582.75" font-family="Arial" font-size="10.00">否</text>
</g>
<!-- check_dir -->
<g id="node14" class="node">
<title>check_dir</title>
<polygon fill="lightblue" stroke="black" points="173,-797.75 109.51,-779.75 173,-761.75 236.49,-779.75 173,-797.75"/>
<text xml:space="preserve" text-anchor="middle" x="173" y="-776.98" font-family="Arial" font-size="12.00">检查方向</text>
</g>
<!-- check_bidir&#45;&gt;check_dir -->
<g id="edge23" class="edge">
<title>check_bidir&#45;&gt;check_dir</title>
<path fill="none" stroke="black" d="M482.71,-670.62C447.17,-686.6 394.7,-708.58 347,-722.25 303.17,-734.81 289.12,-725.44 246,-740.25 230.71,-745.5 214.72,-753.6 201.61,-761.02"/>
<polygon fill="black" stroke="black" points="199.96,-757.93 193.09,-766 203.49,-763.98 199.96,-757.93"/>
<text xml:space="preserve" text-anchor="middle" x="396.86" y="-712.75" font-family="Arial" font-size="10.00">是</text>
</g>
<!-- check_speed -->
<g id="node16" class="node">
<title>check_speed</title>
<polygon fill="lightblue" stroke="black" points="317,-556 253.51,-538 317,-520 380.49,-538 317,-556"/>
<text xml:space="preserve" text-anchor="middle" x="317" y="-535.23" font-family="Arial" font-size="12.00">检查速度</text>
</g>
<!-- check_bidir&#45;&gt;check_speed -->
<g id="edge24" class="edge">
<title>check_bidir&#45;&gt;check_speed</title>
<path fill="none" stroke="black" d="M501.51,-620.53C487.84,-605.75 469.51,-588.44 450,-577.25 424.67,-562.72 393.42,-553.37 367.58,-547.55"/>
<polygon fill="black" stroke="black" points="368.49,-544.17 357.98,-545.51 367.03,-551.01 368.49,-544.17"/>
<text xml:space="preserve" text-anchor="middle" x="475.8" y="-582.75" font-family="Arial" font-size="10.00">否</text>
</g>
<!-- check_timeout&#45;&gt;check_bidir -->
<g id="edge22" class="edge">
<title>check_timeout&#45;&gt;check_bidir</title>
<path fill="none" stroke="black" d="M340.14,-767.8C361.69,-756.91 395.16,-739.42 423,-722.25 443.38,-709.69 465.21,-694.62 483.42,-681.56"/>
<polygon fill="black" stroke="black" points="485.3,-684.52 491.36,-675.83 481.2,-678.84 485.3,-684.52"/>
<text xml:space="preserve" text-anchor="middle" x="460.58" y="-712.75" font-family="Arial" font-size="10.00">未超时</text>
</g>
<!-- check_timeout&#45;&gt;run_to_wait_for_power_on -->
<g id="edge21" class="edge">
<title>check_timeout&#45;&gt;run_to_wait_for_power_on</title>
<path fill="none" stroke="black" d="M340.77,-767.86C358.31,-758.29 381.73,-742.69 395,-722.25 430.91,-666.94 405.8,-639.86 426.5,-577.25 438.52,-540.89 450.64,-535.32 462,-498.75 466.8,-483.3 470.14,-465.59 472.36,-450.96"/>
<polygon fill="black" stroke="black" points="475.76,-451.87 473.68,-441.48 468.83,-450.89 475.76,-451.87"/>
<text xml:space="preserve" text-anchor="middle" x="436.25" y="-582.75" font-family="Arial" font-size="10.00">超时</text>
</g>
<!-- check_dir_change -->
<g id="node15" class="node">
<title>check_dir_change</title>
<polygon fill="lightblue" stroke="black" points="161,-689.25 16,-649.75 161,-610.25 306,-649.75 161,-689.25"/>
<text xml:space="preserve" text-anchor="middle" x="161" y="-654.1" font-family="Arial" font-size="12.00">检查方向变化</text>
<text xml:space="preserve" text-anchor="middle" x="161" y="-636.85" font-family="Arial" font-size="12.00">DIR_CHANGE_BRAKE</text>
</g>
<!-- check_dir&#45;&gt;check_dir_change -->
<g id="edge25" class="edge">
<title>check_dir&#45;&gt;check_dir_change</title>
<path fill="none" stroke="black" d="M171.41,-761.75C169.93,-746.02 167.66,-721.83 165.62,-700.04"/>
<polygon fill="black" stroke="black" points="169.11,-699.73 164.69,-690.1 162.14,-700.38 169.11,-699.73"/>
<text xml:space="preserve" text-anchor="middle" x="191.73" y="-712.75" font-family="Arial" font-size="10.00">方向不匹配</text>
</g>
<!-- check_dir&#45;&gt;check_speed -->
<g id="edge26" class="edge">
<title>check_dir&#45;&gt;check_speed</title>
<path fill="none" stroke="black" d="M193.61,-767.22C231.31,-745.93 308.14,-701.48 315,-689.25 336.49,-650.91 330.56,-597.96 323.99,-566.23"/>
<polygon fill="black" stroke="black" points="327.45,-565.65 321.84,-556.67 320.62,-567.19 327.45,-565.65"/>
<text xml:space="preserve" text-anchor="middle" x="349.55" y="-647.75" font-family="Arial" font-size="10.00">方向匹配</text>
</g>
<!-- check_dir_change&#45;&gt;check_speed -->
<g id="edge28" class="edge">
<title>check_dir_change&#45;&gt;check_speed</title>
<path fill="none" stroke="black" d="M200.77,-620.77C228.82,-601.04 265.64,-575.13 290.25,-557.82"/>
<polygon fill="black" stroke="black" points="291.95,-560.9 298.11,-552.29 287.92,-555.18 291.95,-560.9"/>
<text xml:space="preserve" text-anchor="middle" x="266.96" y="-582.75" font-family="Arial" font-size="10.00">是</text>
</g>
<!-- set_dir_change_brake -->
<g id="node19" class="node">
<title>set_dir_change_brake</title>
<polygon fill="lightblue" stroke="black" points="234,-556 98,-556 98,-520 234,-520 234,-556"/>
<text xml:space="preserve" text-anchor="middle" x="166" y="-535.23" font-family="Arial" font-size="12.00">设置方向变化刹车标志</text>
</g>
<!-- check_dir_change&#45;&gt;set_dir_change_brake -->
<g id="edge27" class="edge">
<title>check_dir_change&#45;&gt;set_dir_change_brake</title>
<path fill="none" stroke="black" d="M162.75,-610.36C163.39,-596.26 164.11,-580.56 164.7,-567.48"/>
<polygon fill="black" stroke="black" points="168.18,-567.99 165.14,-557.84 161.19,-567.67 168.18,-567.99"/>
<text xml:space="preserve" text-anchor="middle" x="169.12" y="-582.75" font-family="Arial" font-size="10.00">否</text>
</g>
<!-- check_speed&#45;&gt;run1 -->
<g id="edge30" class="edge">
<title>check_speed&#45;&gt;run1</title>
<path fill="none" stroke="black" d="M346.47,-527.99C384.78,-516.52 453.9,-496.64 514,-483.75 536,-479.03 544.49,-486.97 564,-475.75 575.1,-469.36 584.6,-459.11 591.97,-449.18"/>
<polygon fill="black" stroke="black" points="594.72,-451.36 597.51,-441.14 588.95,-447.39 594.72,-451.36"/>
<text xml:space="preserve" text-anchor="middle" x="533.5" y="-489.25" font-family="Arial" font-size="10.00">速度足够</text>
</g>
<!-- clear_dir_change_brake -->
<g id="node20" class="node">
<title>clear_dir_change_brake</title>
<polygon fill="lightblue" stroke="black" points="208,-441 72,-441 72,-398.5 208,-398.5 208,-441"/>
<text xml:space="preserve" text-anchor="middle" x="140" y="-425.6" font-family="Arial" font-size="12.00">清除方向变化刹车标志</text>
<text xml:space="preserve" text-anchor="middle" x="140" y="-408.35" font-family="Arial" font-size="12.00">设置初始运行阶段</text>
</g>
<!-- check_speed&#45;&gt;clear_dir_change_brake -->
<g id="edge31" class="edge">
<title>check_speed&#45;&gt;clear_dir_change_brake</title>
<path fill="none" stroke="black" d="M293.13,-526.26C278.85,-520.25 260.2,-513.11 243,-508.75 226.65,-504.6 180.86,-509.36 167.75,-498.75 153.91,-487.54 146.96,-468.91 143.48,-452.66"/>
<polygon fill="black" stroke="black" points="146.94,-452.14 141.77,-442.89 140.05,-453.34 146.94,-452.14"/>
<text xml:space="preserve" text-anchor="middle" x="221.38" y="-489.25" font-family="Arial" font-size="10.00">速度过低且方向变化刹车</text>
</g>
<!-- check_speed&#45;&gt;run_to_wait_for_power_on -->
<g id="edge32" class="edge">
<title>check_speed&#45;&gt;run_to_wait_for_power_on</title>
<path fill="none" stroke="black" d="M299.89,-524.49C286.33,-513.09 271.42,-496.2 283,-483.75 291.35,-474.78 381.4,-479.71 393,-475.75 411.83,-469.32 430.51,-457.56 445.36,-446.55"/>
<polygon fill="black" stroke="black" points="447.09,-449.64 452.89,-440.77 442.82,-444.09 447.09,-449.64"/>
<text xml:space="preserve" text-anchor="middle" x="341.5" y="-489.25" font-family="Arial" font-size="10.00">速度过低且非方向变化刹车</text>
</g>
<!-- clear_startup_phase&#45;&gt;check_initial_run_phase -->
<g id="edge13" class="edge">
<title>clear_startup_phase&#45;&gt;check_initial_run_phase</title>
<path fill="none" stroke="black" d="M1058.25,-559.51C1084.75,-589.3 1131.22,-647.55 1149,-707.25 1168.81,-773.76 1153.4,-811.19 1100,-855.5 1048.64,-898.11 875.94,-918.55 754.37,-927.86"/>
<polygon fill="black" stroke="black" points="754.36,-924.35 744.65,-928.59 754.88,-931.33 754.36,-924.35"/>
</g>
<!-- clear_initial_run_phase&#45;&gt;run1 -->
<g id="edge20" class="edge">
<title>clear_initial_run_phase&#45;&gt;run1</title>
<path fill="none" stroke="black" d="M690.85,-628.11C674.86,-587.61 639.32,-497.55 620.77,-450.57"/>
<polygon fill="black" stroke="black" points="624.04,-449.31 617.11,-441.29 617.52,-451.88 624.04,-449.31"/>
</g>
<!-- set_dir_change_brake&#45;&gt;run4 -->
<g id="edge29" class="edge">
<title>set_dir_change_brake&#45;&gt;run4</title>
<path fill="none" stroke="black" d="M211.03,-519.63C220.17,-514.2 228.86,-507.33 235,-498.75 255.5,-470.11 249,-455.97 249,-420.75 249,-420.75 249,-420.75 249,-264.25 249,-201.08 464.25,-191.06 561.87,-189.76"/>
<polygon fill="black" stroke="black" points="561.69,-193.26 571.65,-189.66 561.62,-186.26 561.69,-193.26"/>
<text xml:space="preserve" text-anchor="middle" x="280.88" y="-339.75" font-family="Arial" font-size="10.00">返回运行阶段4</text>
</g>
<!-- clear_dir_change_brake&#45;&gt;run1 -->
<g id="edge33" class="edge">
<title>clear_dir_change_brake&#45;&gt;run1</title>
<path fill="none" stroke="black" d="M199.24,-441.49C250.7,-459.16 327.66,-482.66 397,-492.25 466.56,-501.87 492.24,-523.76 555,-492.25 572.72,-483.35 586.1,-465.58 595.11,-449.86"/>
<polygon fill="black" stroke="black" points="598.07,-451.75 599.69,-441.28 591.89,-448.45 598.07,-451.75"/>
</g>
</g>
</svg>
