<?xml version="1.0" encoding="UTF-8" standalone="no"?>
<!DOCTYPE svg PUBLIC "-//W3C//DTD SVG 1.1//EN"
 "http://www.w3.org/Graphics/SVG/1.1/DTD/svg11.dtd">
<!-- Generated by graphviz version 13.0.1 (20250615.1724)
 -->
<!-- Title: BLHeli_S_Startup_Flow Pages: 1 -->
<svg width="1030pt" height="1157pt"
 viewBox="0.00 0.00 1030.00 1157.00" xmlns="http://www.w3.org/2000/svg" xmlns:xlink="http://www.w3.org/1999/xlink">
<g id="graph0" class="graph" transform="scale(1 1) rotate(0) translate(4 1152.5)">
<title>BLHeli_S_Startup_Flow</title>
<polygon fill="white" stroke="none" points="-4,4 -4,-1152.5 1025.88,-1152.5 1025.88,4 -4,4"/>
<g id="clust1" class="cluster">
<title>cluster_initialization</title>
<polygon fill="lightgrey" stroke="lightgrey" points="8,-606.25 8,-1140.5 198,-1140.5 198,-606.25 8,-606.25"/>
<text xml:space="preserve" text-anchor="middle" x="103" y="-1123.2" font-family="Times,serif" font-size="14.00">初始化子流程</text>
</g>
<g id="clust2" class="cluster">
<title>cluster_signal_detection</title>
<polygon fill="lightgrey" stroke="lightgrey" points="318,-79 318,-573.25 604,-573.25 604,-79 318,-79"/>
<text xml:space="preserve" text-anchor="middle" x="461" y="-555.95" font-family="Times,serif" font-size="14.00">信号检测子流程</text>
</g>
<g id="clust3" class="cluster">
<title>cluster_arming</title>
<polygon fill="lightgrey" stroke="lightgrey" points="370,-608 370,-1037.75 556,-1037.75 556,-608 370,-608"/>
<text xml:space="preserve" text-anchor="middle" x="463" y="-1020.45" font-family="Times,serif" font-size="14.00">解锁子流程</text>
</g>
<g id="clust4" class="cluster">
<title>cluster_startup</title>
<polygon fill="lightgrey" stroke="lightgrey" points="612,-79 612,-690 916,-690 916,-79 612,-79"/>
<text xml:space="preserve" text-anchor="middle" x="764" y="-672.7" font-family="Times,serif" font-size="14.00">启动子流程</text>
</g>
<!-- pgm_start -->
<g id="node1" class="node">
<title>pgm_start</title>
<polygon fill="lightgreen" stroke="black" points="137.25,-1104.25 68.75,-1104.25 68.75,-1064.75 137.25,-1064.75 137.25,-1104.25"/>
<text xml:space="preserve" text-anchor="middle" x="103" y="-1088.85" font-family="Arial" font-size="12.00">程序启动</text>
<text xml:space="preserve" text-anchor="middle" x="103" y="-1071.6" font-family="Arial" font-size="12.00">pgm_start</text>
</g>
<!-- init_hardware -->
<g id="node2" class="node">
<title>init_hardware</title>
<polygon fill="lightblue" stroke="black" points="168.75,-1003 37.25,-1003 37.25,-960.5 168.75,-960.5 168.75,-1003"/>
<text xml:space="preserve" text-anchor="middle" x="103" y="-987.6" font-family="Arial" font-size="12.00">硬件初始化</text>
<text xml:space="preserve" text-anchor="middle" x="103" y="-970.35" font-family="Arial" font-size="12.00">(时钟、端口、中断等)</text>
</g>
<!-- pgm_start&#45;&gt;init_hardware -->
<g id="edge1" class="edge">
<title>pgm_start&#45;&gt;init_hardware</title>
<path fill="none" stroke="black" d="M103,-1064.55C103,-1050.51 103,-1031.06 103,-1014.64"/>
<polygon fill="black" stroke="black" points="106.5,-1014.86 103,-1004.86 99.5,-1014.86 106.5,-1014.86"/>
</g>
<!-- clear_ram -->
<g id="node3" class="node">
<title>clear_ram</title>
<polygon fill="lightblue" stroke="black" points="136.5,-921.75 69.5,-921.75 69.5,-885.75 136.5,-885.75 136.5,-921.75"/>
<text xml:space="preserve" text-anchor="middle" x="103" y="-900.98" font-family="Arial" font-size="12.00">清除RAM</text>
</g>
<!-- init_hardware&#45;&gt;clear_ram -->
<g id="edge2" class="edge">
<title>init_hardware&#45;&gt;clear_ram</title>
<path fill="none" stroke="black" d="M103,-960.38C103,-952.07 103,-942.3 103,-933.3"/>
<polygon fill="black" stroke="black" points="106.5,-933.59 103,-923.59 99.5,-933.59 106.5,-933.59"/>
</g>
<!-- set_default_parameters -->
<g id="node4" class="node">
<title>set_default_parameters</title>
<polygon fill="lightblue" stroke="black" points="173.62,-847 32.38,-847 32.38,-807.5 173.62,-807.5 173.62,-847"/>
<text xml:space="preserve" text-anchor="middle" x="103" y="-831.6" font-family="Arial" font-size="12.00">设置默认参数</text>
<text xml:space="preserve" text-anchor="middle" x="103" y="-814.35" font-family="Arial" font-size="12.00">set_default_parameters</text>
</g>
<!-- clear_ram&#45;&gt;set_default_parameters -->
<g id="edge3" class="edge">
<title>clear_ram&#45;&gt;set_default_parameters</title>
<path fill="none" stroke="black" d="M103,-885.47C103,-877.52 103,-867.85 103,-858.73"/>
<polygon fill="black" stroke="black" points="106.5,-858.78 103,-848.78 99.5,-858.78 106.5,-858.78"/>
</g>
<!-- read_eeprom_parameters -->
<g id="node5" class="node">
<title>read_eeprom_parameters</title>
<polygon fill="lightblue" stroke="black" points="189.75,-756.5 16.25,-756.5 16.25,-717 189.75,-717 189.75,-756.5"/>
<text xml:space="preserve" text-anchor="middle" x="103" y="-741.1" font-family="Arial" font-size="12.00">读取EEPROM参数</text>
<text xml:space="preserve" text-anchor="middle" x="103" y="-723.85" font-family="Arial" font-size="12.00">read_all_eeprom_parameters</text>
</g>
<!-- set_default_parameters&#45;&gt;read_eeprom_parameters -->
<g id="edge4" class="edge">
<title>set_default_parameters&#45;&gt;read_eeprom_parameters</title>
<path fill="none" stroke="black" d="M103,-807.05C103,-795.68 103,-781.03 103,-768.13"/>
<polygon fill="black" stroke="black" points="106.5,-768.43 103,-758.43 99.5,-768.43 106.5,-768.43"/>
</g>
<!-- init_beep -->
<g id="node6" class="node">
<title>init_beep</title>
<polygon fill="lightblue" stroke="black" points="189,-653.75 23,-653.75 23,-614.25 189,-614.25 189,-653.75"/>
<text xml:space="preserve" text-anchor="middle" x="106" y="-638.35" font-family="Arial" font-size="12.00">初始化蜂鸣</text>
<text xml:space="preserve" text-anchor="middle" x="106" y="-621.1" font-family="Arial" font-size="12.00">(beep_f1, beep_f2, beep_f3)</text>
</g>
<!-- read_eeprom_parameters&#45;&gt;init_beep -->
<g id="edge5" class="edge">
<title>read_eeprom_parameters&#45;&gt;init_beep</title>
<path fill="none" stroke="black" d="M103.56,-716.8C103.99,-702.4 104.59,-682.29 105.09,-665.61"/>
<polygon fill="black" stroke="black" points="108.58,-665.82 105.38,-655.72 101.59,-665.61 108.58,-665.82"/>
</g>
<!-- init_no_signal -->
<g id="node7" class="node">
<title>init_no_signal</title>
<polygon fill="lightyellow" stroke="black" points="461.5,-537 370.5,-537 370.5,-497.5 461.5,-497.5 461.5,-537"/>
<text xml:space="preserve" text-anchor="middle" x="416" y="-521.6" font-family="Arial" font-size="12.00">无信号初始化</text>
<text xml:space="preserve" text-anchor="middle" x="416" y="-504.35" font-family="Arial" font-size="12.00">init_no_signal</text>
</g>
<!-- init_beep&#45;&gt;init_no_signal -->
<g id="edge6" class="edge">
<title>init_beep&#45;&gt;init_no_signal</title>
<path fill="none" stroke="black" d="M157.89,-613.79C213.59,-593.17 301.81,-560.52 359.3,-539.24"/>
<polygon fill="black" stroke="black" points="360.44,-542.55 368.6,-535.8 358.01,-535.99 360.44,-542.55"/>
</g>
<!-- check_bootloader -->
<g id="node8" class="node">
<title>check_bootloader</title>
<polygon fill="lightblue" stroke="black" points="461,-444.75 326.08,-426.75 461,-408.75 595.92,-426.75 461,-444.75"/>
<text xml:space="preserve" text-anchor="middle" x="461" y="-423.98" font-family="Arial" font-size="12.00">检查是否进入引导程序</text>
</g>
<!-- init_no_signal&#45;&gt;check_bootloader -->
<g id="edge7" class="edge">
<title>init_no_signal&#45;&gt;check_bootloader</title>
<path fill="none" stroke="black" d="M425.76,-497.05C432.19,-484.41 440.68,-467.7 447.72,-453.86"/>
<polygon fill="black" stroke="black" points="450.66,-455.8 452.08,-445.3 444.42,-452.63 450.66,-455.8"/>
</g>
<!-- decode_settings -->
<g id="node9" class="node">
<title>decode_settings</title>
<polygon fill="lightblue" stroke="black" points="511.88,-356 408.12,-356 408.12,-316.5 511.88,-316.5 511.88,-356"/>
<text xml:space="preserve" text-anchor="middle" x="460" y="-340.6" font-family="Arial" font-size="12.00">解码设置</text>
<text xml:space="preserve" text-anchor="middle" x="460" y="-323.35" font-family="Arial" font-size="12.00">decode_settings</text>
</g>
<!-- check_bootloader&#45;&gt;decode_settings -->
<g id="edge8" class="edge">
<title>check_bootloader&#45;&gt;decode_settings</title>
<path fill="none" stroke="black" d="M460.81,-408.69C460.68,-397.11 460.5,-381.48 460.35,-367.79"/>
<polygon fill="black" stroke="black" points="463.85,-367.89 460.23,-357.93 456.85,-367.96 463.85,-367.89"/>
<text xml:space="preserve" text-anchor="middle" x="465.43" y="-379.5" font-family="Arial" font-size="10.00">否</text>
</g>
<!-- bootloader -->
<g id="node27" class="node">
<title>bootloader</title>
<polygon fill="none" stroke="black" stroke-dasharray="5,2" points="310,-354.25 246,-354.25 246,-318.25 310,-318.25 310,-354.25"/>
<text xml:space="preserve" text-anchor="middle" x="278" y="-333.48" font-family="Arial" font-size="12.00">引导程序</text>
</g>
<!-- check_bootloader&#45;&gt;bootloader -->
<g id="edge9" class="edge">
<title>check_bootloader&#45;&gt;bootloader</title>
<path fill="none" stroke="black" stroke-dasharray="5,2" d="M431.84,-412.3C404.34,-399.54 361.72,-379.54 320.36,-359.13"/>
<polygon fill="black" stroke="black" points="322.03,-356.05 311.51,-354.75 318.92,-362.32 322.03,-356.05"/>
<text xml:space="preserve" text-anchor="middle" x="383.14" y="-379.5" font-family="Arial" font-size="10.00">是</text>
</g>
<!-- find_throttle_gains -->
<g id="node10" class="node">
<title>find_throttle_gains</title>
<polygon fill="lightblue" stroke="black" points="484.12,-279.5 369.88,-279.5 369.88,-240 484.12,-240 484.12,-279.5"/>
<text xml:space="preserve" text-anchor="middle" x="427" y="-264.1" font-family="Arial" font-size="12.00">查找油门增益</text>
<text xml:space="preserve" text-anchor="middle" x="427" y="-246.85" font-family="Arial" font-size="12.00">find_throttle_gains</text>
</g>
<!-- decode_settings&#45;&gt;find_throttle_gains -->
<g id="edge10" class="edge">
<title>decode_settings&#45;&gt;find_throttle_gains</title>
<path fill="none" stroke="black" d="M451.5,-316.06C448.04,-308.24 443.95,-299.02 440.12,-290.37"/>
<polygon fill="black" stroke="black" points="443.33,-288.98 436.08,-281.25 436.93,-291.82 443.33,-288.98"/>
</g>
<!-- setup_timers -->
<g id="node11" class="node">
<title>setup_timers</title>
<polygon fill="lightblue" stroke="black" points="448,-201.25 372,-201.25 372,-165.25 448,-165.25 448,-201.25"/>
<text xml:space="preserve" text-anchor="middle" x="410" y="-180.47" font-family="Arial" font-size="12.00">设置定时器</text>
</g>
<!-- find_throttle_gains&#45;&gt;setup_timers -->
<g id="edge11" class="edge">
<title>find_throttle_gains&#45;&gt;setup_timers</title>
<path fill="none" stroke="black" d="M422.62,-239.56C420.76,-231.41 418.55,-221.73 416.51,-212.77"/>
<polygon fill="black" stroke="black" points="419.93,-212.03 414.29,-203.06 413.11,-213.59 419.93,-212.03"/>
</g>
<!-- test_signal_type -->
<g id="node12" class="node">
<title>test_signal_type</title>
<polygon fill="lightblue" stroke="black" points="469.88,-126.5 330.12,-126.5 330.12,-87 469.88,-87 469.88,-126.5"/>
<text xml:space="preserve" text-anchor="middle" x="400" y="-111.1" font-family="Arial" font-size="12.00">测试信号类型</text>
<text xml:space="preserve" text-anchor="middle" x="400" y="-93.85" font-family="Arial" font-size="12.00">(PWM/OneShot/DShot)</text>
</g>
<!-- setup_timers&#45;&gt;test_signal_type -->
<g id="edge12" class="edge">
<title>setup_timers&#45;&gt;test_signal_type</title>
<path fill="none" stroke="black" d="M407.68,-164.97C406.6,-156.93 405.29,-147.13 404.05,-137.93"/>
<polygon fill="black" stroke="black" points="407.55,-137.71 402.75,-128.27 400.62,-138.64 407.55,-137.71"/>
</g>
<!-- validate_rcp_start -->
<g id="node13" class="node">
<title>validate_rcp_start</title>
<polygon fill="lightblue" stroke="black" points="494.25,-1001.5 383.75,-1001.5 383.75,-962 494.25,-962 494.25,-1001.5"/>
<text xml:space="preserve" text-anchor="middle" x="439" y="-986.1" font-family="Arial" font-size="12.00">验证RC脉冲</text>
<text xml:space="preserve" text-anchor="middle" x="439" y="-968.85" font-family="Arial" font-size="12.00">validate_rcp_start</text>
</g>
<!-- test_signal_type&#45;&gt;validate_rcp_start -->
<g id="edge13" class="edge">
<title>test_signal_type&#45;&gt;validate_rcp_start</title>
<path fill="none" stroke="black" d="M329.63,-109.42C278.42,-114.83 218,-131.89 218,-182.25 218,-904.75 218,-904.75 218,-904.75 218,-937.78 307.41,-959.54 372.49,-971"/>
<polygon fill="black" stroke="black" points="371.58,-974.4 382.03,-972.63 372.76,-967.5 371.58,-974.4"/>
</g>
<!-- arming_start -->
<g id="node14" class="node">
<title>arming_start</title>
<polygon fill="lightblue" stroke="black" points="496,-923.5 408,-923.5 408,-884 496,-884 496,-923.5"/>
<text xml:space="preserve" text-anchor="middle" x="452" y="-908.1" font-family="Arial" font-size="12.00">解锁序列开始</text>
<text xml:space="preserve" text-anchor="middle" x="452" y="-890.85" font-family="Arial" font-size="12.00">arming_start</text>
</g>
<!-- validate_rcp_start&#45;&gt;arming_start -->
<g id="edge14" class="edge">
<title>validate_rcp_start&#45;&gt;arming_start</title>
<path fill="none" stroke="black" d="M442.28,-961.57C443.65,-953.56 445.28,-944.06 446.8,-935.14"/>
<polygon fill="black" stroke="black" points="450.23,-935.86 448.47,-925.41 443.33,-934.68 450.23,-935.86"/>
</g>
<!-- check_tx_programming -->
<g id="node15" class="node">
<title>check_tx_programming</title>
<polygon fill="lightblue" stroke="black" points="457,-845.25 377.88,-827.25 457,-809.25 536.12,-827.25 457,-845.25"/>
<text xml:space="preserve" text-anchor="middle" x="457" y="-824.48" font-family="Arial" font-size="12.00">检查TX编程</text>
</g>
<!-- arming_start&#45;&gt;check_tx_programming -->
<g id="edge15" class="edge">
<title>arming_start&#45;&gt;check_tx_programming</title>
<path fill="none" stroke="black" d="M453.29,-883.56C453.84,-875.29 454.5,-865.45 455.11,-856.38"/>
<polygon fill="black" stroke="black" points="458.59,-856.81 455.77,-846.6 451.61,-856.34 458.59,-856.81"/>
</g>
<!-- throttle_calibration -->
<g id="node16" class="node">
<title>throttle_calibration</title>
<polygon fill="lightblue" stroke="black" points="442,-754.75 378,-754.75 378,-718.75 442,-718.75 442,-754.75"/>
<text xml:space="preserve" text-anchor="middle" x="410" y="-733.98" font-family="Arial" font-size="12.00">油门校准</text>
</g>
<!-- check_tx_programming&#45;&gt;throttle_calibration -->
<g id="edge16" class="edge">
<title>check_tx_programming&#45;&gt;throttle_calibration</title>
<path fill="none" stroke="black" d="M448.81,-810.83C442.1,-798.2 432.44,-780.01 424.44,-764.94"/>
<polygon fill="black" stroke="black" points="427.71,-763.64 419.93,-756.45 421.53,-766.92 427.71,-763.64"/>
<text xml:space="preserve" text-anchor="middle" x="441.19" y="-780" font-family="Arial" font-size="10.00">是</text>
</g>
<!-- arm_end_beep -->
<g id="node18" class="node">
<title>arm_end_beep</title>
<polygon fill="lightblue" stroke="black" points="548,-754.75 460,-754.75 460,-718.75 548,-718.75 548,-754.75"/>
<text xml:space="preserve" text-anchor="middle" x="504" y="-733.98" font-family="Arial" font-size="12.00">解锁结束蜂鸣</text>
</g>
<!-- check_tx_programming&#45;&gt;arm_end_beep -->
<g id="edge17" class="edge">
<title>check_tx_programming&#45;&gt;arm_end_beep</title>
<path fill="none" stroke="black" d="M465.19,-810.83C471.9,-798.2 481.56,-780.01 489.56,-764.94"/>
<polygon fill="black" stroke="black" points="492.47,-766.92 494.07,-756.45 486.29,-763.64 492.47,-766.92"/>
<text xml:space="preserve" text-anchor="middle" x="488.19" y="-780" font-family="Arial" font-size="10.00">否</text>
</g>
<!-- store_calibration -->
<g id="node17" class="node">
<title>store_calibration</title>
<polygon fill="lightblue" stroke="black" points="454,-652 378,-652 378,-616 454,-616 454,-652"/>
<text xml:space="preserve" text-anchor="middle" x="416" y="-631.23" font-family="Arial" font-size="12.00">存储校准值</text>
</g>
<!-- throttle_calibration&#45;&gt;store_calibration -->
<g id="edge18" class="edge">
<title>throttle_calibration&#45;&gt;store_calibration</title>
<path fill="none" stroke="black" d="M411.02,-718.66C411.91,-703.61 413.24,-681.38 414.3,-663.61"/>
<polygon fill="black" stroke="black" points="417.79,-663.88 414.89,-653.69 410.8,-663.46 417.79,-663.88"/>
</g>
<!-- store_calibration&#45;&gt;init_no_signal -->
<g id="edge19" class="edge">
<title>store_calibration&#45;&gt;init_no_signal</title>
<path fill="none" stroke="black" d="M416,-615.57C416,-597.88 416,-570.13 416,-548.78"/>
<polygon fill="black" stroke="black" points="419.5,-548.89 416,-538.89 412.5,-548.89 419.5,-548.89"/>
<text xml:space="preserve" text-anchor="middle" x="445.25" y="-586.75" font-family="Arial" font-size="10.00">返回检测信号</text>
</g>
<!-- wait_for_power_on -->
<g id="node19" class="node">
<title>wait_for_power_on</title>
<polygon fill="lightpink" stroke="black" points="756,-653.75 638,-653.75 638,-614.25 756,-614.25 756,-653.75"/>
<text xml:space="preserve" text-anchor="middle" x="697" y="-638.35" font-family="Arial" font-size="12.00">等待加电</text>
<text xml:space="preserve" text-anchor="middle" x="697" y="-621.1" font-family="Arial" font-size="12.00">wait_for_power_on</text>
</g>
<!-- arm_end_beep&#45;&gt;wait_for_power_on -->
<g id="edge20" class="edge">
<title>arm_end_beep&#45;&gt;wait_for_power_on</title>
<path fill="none" stroke="black" d="M537.18,-718.43C568.37,-702.15 615.37,-677.61 650.34,-659.36"/>
<polygon fill="black" stroke="black" points="651.73,-662.58 658.97,-654.85 648.49,-656.38 651.73,-662.58"/>
</g>
<!-- check_power_on -->
<g id="node20" class="node">
<title>check_power_on</title>
<polygon fill="lightblue" stroke="black" points="697,-535.25 633.51,-517.25 697,-499.25 760.49,-517.25 697,-535.25"/>
<text xml:space="preserve" text-anchor="middle" x="697" y="-514.48" font-family="Arial" font-size="12.00">检查加电</text>
</g>
<!-- wait_for_power_on&#45;&gt;check_power_on -->
<g id="edge21" class="edge">
<title>wait_for_power_on&#45;&gt;check_power_on</title>
<path fill="none" stroke="black" d="M697,-613.79C697,-595.55 697,-567.89 697,-547.02"/>
<polygon fill="black" stroke="black" points="700.5,-547.15 697,-537.15 693.5,-547.15 700.5,-547.15"/>
</g>
<!-- check_dshot_cmd -->
<g id="node21" class="node">
<title>check_dshot_cmd</title>
<polygon fill="lightblue" stroke="black" points="811,-444.75 714.03,-426.75 811,-408.75 907.97,-426.75 811,-444.75"/>
<text xml:space="preserve" text-anchor="middle" x="811" y="-423.98" font-family="Arial" font-size="12.00">检查DShot命令</text>
</g>
<!-- check_power_on&#45;&gt;check_dshot_cmd -->
<g id="edge22" class="edge">
<title>check_power_on&#45;&gt;check_dshot_cmd</title>
<path fill="none" stroke="black" d="M713.33,-503.57C731.76,-489.27 762.01,-465.78 783.97,-448.74"/>
<polygon fill="black" stroke="black" points="785.86,-451.69 791.62,-442.8 781.57,-446.17 785.86,-451.69"/>
<text xml:space="preserve" text-anchor="middle" x="776.2" y="-470" font-family="Arial" font-size="10.00">油门=0</text>
</g>
<!-- init_start -->
<g id="node22" class="node">
<title>init_start</title>
<polygon fill="lightblue" stroke="black" points="696,-446.5 620,-446.5 620,-407 696,-407 696,-446.5"/>
<text xml:space="preserve" text-anchor="middle" x="658" y="-431.1" font-family="Arial" font-size="12.00">启动初始化</text>
<text xml:space="preserve" text-anchor="middle" x="658" y="-413.85" font-family="Arial" font-size="12.00">init_start</text>
</g>
<!-- check_power_on&#45;&gt;init_start -->
<g id="edge23" class="edge">
<title>check_power_on&#45;&gt;init_start</title>
<path fill="none" stroke="black" d="M690.21,-500.83C684.87,-488.72 677.28,-471.5 670.81,-456.81"/>
<polygon fill="black" stroke="black" points="674.19,-455.81 666.95,-448.07 667.78,-458.63 674.19,-455.81"/>
<text xml:space="preserve" text-anchor="middle" x="695.21" y="-470" font-family="Arial" font-size="10.00">油门&gt;0</text>
</g>
<!-- check_dshot_cmd&#45;&gt;wait_for_power_on -->
<g id="edge25" class="edge">
<title>check_dshot_cmd&#45;&gt;wait_for_power_on</title>
<path fill="none" stroke="black" d="M809.36,-444.8C805.93,-473.44 795.93,-532.11 769,-573.25 760.56,-586.14 748.5,-597.68 736.65,-607.1"/>
<polygon fill="black" stroke="black" points="734.76,-604.14 728.9,-612.96 738.99,-609.72 734.76,-604.14"/>
<text xml:space="preserve" text-anchor="middle" x="814.33" y="-515.25" font-family="Arial" font-size="10.00">无命令</text>
</g>
<!-- process_dshot_cmd -->
<g id="node28" class="node">
<title>process_dshot_cmd</title>
<polygon fill="none" stroke="black" stroke-dasharray="5,2" points="1021.88,-354.25 924.12,-354.25 924.12,-318.25 1021.88,-318.25 1021.88,-354.25"/>
<text xml:space="preserve" text-anchor="middle" x="973" y="-333.48" font-family="Arial" font-size="12.00">处理DShot命令</text>
</g>
<!-- check_dshot_cmd&#45;&gt;process_dshot_cmd -->
<g id="edge24" class="edge">
<title>check_dshot_cmd&#45;&gt;process_dshot_cmd</title>
<path fill="none" stroke="black" stroke-dasharray="5,2" d="M834.9,-412.69C860.21,-398.87 900.64,-376.78 931.23,-360.07"/>
<polygon fill="black" stroke="black" points="932.76,-363.22 939.86,-355.35 929.41,-357.08 932.76,-363.22"/>
<text xml:space="preserve" text-anchor="middle" x="916.32" y="-379.5" font-family="Arial" font-size="10.00">有命令</text>
</g>
<!-- read_initial_temp -->
<g id="node23" class="node">
<title>read_initial_temp</title>
<polygon fill="lightblue" stroke="black" points="708,-354.25 620,-354.25 620,-318.25 708,-318.25 708,-354.25"/>
<text xml:space="preserve" text-anchor="middle" x="664" y="-333.48" font-family="Arial" font-size="12.00">读取初始温度</text>
</g>
<!-- init_start&#45;&gt;read_initial_temp -->
<g id="edge26" class="edge">
<title>init_start&#45;&gt;read_initial_temp</title>
<path fill="none" stroke="black" d="M659.3,-406.55C660.1,-394.71 661.15,-379.32 662.05,-366.05"/>
<polygon fill="black" stroke="black" points="665.54,-366.34 662.72,-356.13 658.55,-365.87 665.54,-366.34"/>
</g>
<!-- set_startup_conditions -->
<g id="node24" class="node">
<title>set_startup_conditions</title>
<polygon fill="lightblue" stroke="black" points="732,-277.75 644,-277.75 644,-241.75 732,-241.75 732,-277.75"/>
<text xml:space="preserve" text-anchor="middle" x="688" y="-256.98" font-family="Arial" font-size="12.00">设置启动条件</text>
</g>
<!-- read_initial_temp&#45;&gt;set_startup_conditions -->
<g id="edge27" class="edge">
<title>read_initial_temp&#45;&gt;set_startup_conditions</title>
<path fill="none" stroke="black" d="M669.57,-317.97C672.33,-309.38 675.75,-298.78 678.88,-289.05"/>
<polygon fill="black" stroke="black" points="682.18,-290.23 681.92,-279.63 675.52,-288.08 682.18,-290.23"/>
</g>
<!-- startup_commutation -->
<g id="node25" class="node">
<title>startup_commutation</title>
<polygon fill="lightblue" stroke="black" points="805.75,-203 620.25,-203 620.25,-163.5 805.75,-163.5 805.75,-203"/>
<text xml:space="preserve" text-anchor="middle" x="713" y="-187.6" font-family="Arial" font-size="12.00">启动换向</text>
<text xml:space="preserve" text-anchor="middle" x="713" y="-170.35" font-family="Arial" font-size="12.00">(comm5comm6, comm6comm1)</text>
</g>
<!-- set_startup_conditions&#45;&gt;startup_commutation -->
<g id="edge28" class="edge">
<title>set_startup_conditions&#45;&gt;startup_commutation</title>
<path fill="none" stroke="black" d="M693.8,-241.47C696.53,-233.34 699.86,-223.41 702.98,-214.12"/>
<polygon fill="black" stroke="black" points="706.27,-215.3 706.14,-204.7 699.64,-213.07 706.27,-215.3"/>
</g>
<!-- initialize_timing -->
<g id="node26" class="node">
<title>initialize_timing</title>
<polygon fill="lightblue" stroke="black" points="762.62,-126.5 663.38,-126.5 663.38,-87 762.62,-87 762.62,-126.5"/>
<text xml:space="preserve" text-anchor="middle" x="713" y="-111.1" font-family="Arial" font-size="12.00">初始化时序</text>
<text xml:space="preserve" text-anchor="middle" x="713" y="-93.85" font-family="Arial" font-size="12.00">initialize_timing</text>
</g>
<!-- startup_commutation&#45;&gt;initialize_timing -->
<g id="edge29" class="edge">
<title>startup_commutation&#45;&gt;initialize_timing</title>
<path fill="none" stroke="black" d="M713,-163.06C713,-155.5 713,-146.63 713,-138.24"/>
<polygon fill="black" stroke="black" points="716.5,-138.38 713,-128.38 709.5,-138.38 716.5,-138.38"/>
</g>
<!-- run1 -->
<g id="node29" class="node">
<title>run1</title>
<polygon fill="none" stroke="black" stroke-dasharray="5,2" points="748.38,-36 677.62,-36 677.62,0 748.38,0 748.38,-36"/>
<text xml:space="preserve" text-anchor="middle" x="713" y="-15.22" font-family="Arial" font-size="12.00">运行阶段1</text>
</g>
<!-- initialize_timing&#45;&gt;run1 -->
<g id="edge30" class="edge">
<title>initialize_timing&#45;&gt;run1</title>
<path fill="none" stroke="black" stroke-dasharray="5,2" d="M713,-86.93C713,-75.4 713,-60.44 713,-47.48"/>
<polygon fill="black" stroke="black" points="716.5,-47.83 713,-37.83 709.5,-47.83 716.5,-47.83"/>
<text xml:space="preserve" text-anchor="middle" x="742.25" y="-59.5" font-family="Arial" font-size="10.00">进入运行阶段</text>
</g>
</g>
</svg>
